{"title":"Sabotage (2014) 720p BrRip x264-N3kr4","uid":10535703,"size":1886358644,"categoryP":"video","categoryS":"hd___movies","magnet":"?xt=urn:btih:f20eadc717c76e64d9c9f64895bea2ff021b9411&amp;dn=Sabotage+%282014%29+720p+BrRip+x264-N3kr4&amp;tr=udp%3A%2F%2Ftracker.openbittorrent.com%3A80&amp;tr=udp%3A%2F%2Fopen.demonii.com%3A1337&amp;tr=udp%3A%2F%2Ftracker.coppersurfer.tk%3A6969&amp;tr=udp%3A%2F%2Fexodus.desync.com%3A6969","seeders":1,"leechers":0,"uploader":"Falcon.G13","files":2,"time":1405165971,"description":" &lt;a href=&quot;http://i.imgur.com/mJXb6i3.jpg&quot; rel=&quot;nofollow&quot; target=&quot;_NEW&quot;&gt;http://i.imgur.com/mJXb6i3.jpg&lt;/a&gt; &lt;a href=&quot;\nhttp://i.imgur.com/j4vsHCe.jpg&quot; rel=&quot;nofollow&quot; target=&quot;_NEW&quot;&gt;\nhttp://i.imgur.com/j4vsHCe.jpg&lt;/a&gt; &lt;a href=&quot;\nhttp://i.imgur.com/fzTtlNA.jpg&quot; rel=&quot;nofollow&quot; target=&quot;_NEW&quot;&gt;\nhttp://i.imgur.com/fzTtlNA.jpg&lt;/a&gt; &lt;a href=&quot;\nhttp://i.imgur.com/WGs2d1R.jpg&quot; rel=&quot;nofollow&quot; target=&quot;_NEW&quot;&gt;\nhttp://i.imgur.com/WGs2d1R.jpg&lt;/a&gt; &lt;a href=&quot;\nhttp://i.imgur.com/5oWhbZR.jpg&quot; rel=&quot;nofollow&quot; target=&quot;_NEW&quot;&gt;\nhttp://i.imgur.com/5oWhbZR.jpg&lt;/a&gt; &lt;a href=&quot;\nhttp://i.imgur.com/rMKvev5.jpg&quot; rel=&quot;nofollow&quot; target=&quot;_NEW&quot;&gt;\nhttp://i.imgur.com/rMKvev5.jpg&lt;/a&gt; &lt;a href=&quot;\nhttp://i.imgur.com/CQIRDeu.jpg&quot; rel=&quot;nofollow&quot; target=&quot;_NEW&quot;&gt;\nhttp://i.imgur.com/CQIRDeu.jpg&lt;/a&gt; &lt;a href=&quot;\nhttp://i.imgur.com/QF9BJXj.jpg&quot; rel=&quot;nofollow&quot; target=&quot;_NEW&quot;&gt;\nhttp://i.imgur.com/QF9BJXj.jpg&lt;/a&gt;\n\nGeneral\nComplete name : Sabotage (2014) 720p BrRip x264-N3kr4.mp4\nFormat : MPEG-4\nFormat profile : Base Media\nCodec ID : isom\nFile size : 1.76 GiB\nDuration : 1h 49mn\nOverall bit rate mode : Variable\nOverall bit rate : 2 293 Kbps\nWriting application : Lavf55.7.100\n\nVideo\nID : 1\nFormat : AVC\nFormat/Info : Advanced Video Codec\nFormat profile : &lt;a class=&quot;__cf_email__&quot; href=&quot;/cdn-cgi/l/email-protection&quot; data-cfemail=&quot;0c416d65624c4038223c&quot;&gt;[email&amp;#160;protected]&lt;/a&gt;&lt;script cf-hash='f9e31' type=&quot;text/javascript&quot;&gt;\n/* &lt;![CDATA[ */!function(){try{var t=&quot;currentScript&quot;in document?document.currentScript:function(){for(var t=document.getElementsByTagName(&quot;script&quot;),e=t.length;e--;)if(t[e].getAttribute(&quot;cf-hash&quot;))return t[e]}();if(t&amp;&amp;t.previousSibling){var e,r,n,i,c=t.previousSibling,a=c.getAttribute(&quot;data-cfemail&quot;);if(a){for(e=&quot;&quot;,r=parseInt(a.substr(0,2),16),n=2;a.length-n;n+=2)i=parseInt(a.substr(n,2),16)^r,e+=String.fromCharCode(i);e=document.createTextNode(e),c.parentNode.replaceChild(e,c)}}}catch(u){}}();/* ]]&gt; */&lt;/script&gt;\nFormat settings, CABAC : Yes\nFormat settings, ReFrames : 3 frames\nCodec ID : avc1\nCodec ID/Info : Advanced Video Coding\nDuration : 1h 49mn\nBit rate : 1 573 Kbps\nWidth : 1 280 pixels\nHeight : 720 pixels\nDisplay aspect ratio : 16:9\nFrame rate mode : Constant\nFrame rate : 23.976 fps\nColor space : YUV\nChroma subsampling : 4:2:0\nBit depth : 8 bits\nScan type : Progressive\nBits/(Pixel*Frame) : 0.071\nStream size : 1.21 GiB (69%)\nLanguage : English\n\nAudio\nID : 2\nFormat : AAC\nFormat/Info : Advanced Audio Codec\nFormat profile : LC\nCodec ID : 40\nDuration : 1h 49mn\nBit rate mode : Variable\nBit rate : 713 Kbps\nMaximum bit rate : 768 Kbps\nChannel(s) : 2 channels\nChannel(s)_Original : 6 channels\nChannel positions : Front: L C R, Side: L R, LFE\nSampling rate : 96.0 KHz\nCompression mode : Lossy\nStream size : 559 MiB (31%)\nLanguage : English","torrent":{"xt":"urn:btih:f20eadc717c76e64d9c9f64895bea2ff021b9411","amp;dn":"Sabotage+%282014%29+720p+BrRip+x264-N3kr4","amp;tr":["udp%3A%2F%2Ftracker.openbittorrent.com%3A80","udp%3A%2F%2Fopen.demonii.com%3A1337","udp%3A%2F%2Ftracker.coppersurfer.tk%3A6969","udp%3A%2F%2Fexodus.desync.com%3A6969"],"infoHash":"f20eadc717c76e64d9c9f64895bea2ff021b9411","infoHashBuffer":{"type":"Buffer","data":[242,14,173,199,23,199,110,100,217,201,246,72,149,190,162,255,2,27,148,17]},"announce":[],"urlList":[]}}